<?xml version="1.0" encoding="utf-8" standalone="no"?>
<!DOCTYPE svg PUBLIC "-//W3C//DTD SVG 1.1//EN"
  "http://www.w3.org/Graphics/SVG/1.1/DTD/svg11.dtd">
<svg xmlns:xlink="http://www.w3.org/1999/xlink" width="460.672812pt" height="236.507937pt" viewBox="0 0 460.672812 236.507937" xmlns="http://www.w3.org/2000/svg" version="1.1">
 <metadata>
  <rdf:RDF xmlns:dc="http://purl.org/dc/elements/1.1/" xmlns:cc="http://creativecommons.org/ns#" xmlns:rdf="http://www.w3.org/1999/02/22-rdf-syntax-ns#">
   <cc:Work>
    <dc:type rdf:resource="http://purl.org/dc/dcmitype/StillImage"/>
    <dc:date>2025-11-24T23:39:23.527239</dc:date>
    <dc:format>image/svg+xml</dc:format>
    <dc:creator>
     <cc:Agent>
      <dc:title>Matplotlib v3.10.7, https://matplotlib.org/</dc:title>
     </cc:Agent>
    </dc:creator>
   </cc:Work>
  </rdf:RDF>
 </metadata>
 <defs>
  <style type="text/css">*{stroke-linejoin: round; stroke-linecap: butt}</style>
 </defs>
 <g id="figure_1">
  <g id="patch_1">
   <path d="M 0 236.507937 
L 460.672812 236.507937 
L 460.672812 0 
L 0 0 
z
" style="fill: #ffffff"/>
  </g>
  <g id="axes_1">
   <g id="patch_2">
    <path d="M 52.032813 199.306375 
L 453.472812 199.306375 
L 453.472812 21.5325 
L 52.032813 21.5325 
z
" style="fill: #ffffff"/>
   </g>
   <g id="line2d_1">
    <path clip-path="url(#pfc9e387246)" style="fill: none; stroke-dasharray: 3.7,1.6; stroke-dashoffset: 0; stroke: #595959"/>
   </g>
   <g id="matplotlib.axis_1">
    <g id="xtick_1">
     <g id="line2d_2">
      <path d="M 172.798097 199.306375 
L 172.798097 21.5325 
" clip-path="url(#pfc9e387246)" style="fill: none; stroke-dasharray: 1.665,0.72; stroke-dashoffset: 0; stroke: #b0b0b0; stroke-opacity: 0.4; stroke-width: 0.45"/>
     </g>
     <g id="line2d_3">
      <defs>
       <path id="m4450b3f324" d="M 0 0 
L 0 3.5 
" style="stroke: #000000; stroke-width: 0.8"/>
      </defs>
      <g>
       <use xlink:href="#m4450b3f324" x="172.798097" y="199.306375" style="stroke: #000000; stroke-width: 0.8"/>
      </g>
     </g>
     <g id="text_1">
      <!-- $\mathdefault{10^{0}}$ -->
      <g transform="translate(166.453097 214.281219) scale(0.09 -0.09)">
       <defs>
        <path id="TimesNewRomanPSMT-31" d="M 750 3822 
L 1781 4325 
L 1884 4325 
L 1884 747 
Q 1884 391 1914 303 
Q 1944 216 2037 169 
Q 2131 122 2419 116 
L 2419 0 
L 825 0 
L 825 116 
Q 1125 122 1212 167 
Q 1300 213 1334 289 
Q 1369 366 1369 747 
L 1369 3034 
Q 1369 3497 1338 3628 
Q 1316 3728 1258 3775 
Q 1200 3822 1119 3822 
Q 1003 3822 797 3725 
L 750 3822 
z
" transform="scale(0.015625)"/>
        <path id="TimesNewRomanPSMT-30" d="M 231 2094 
Q 231 2819 450 3342 
Q 669 3866 1031 4122 
Q 1313 4325 1613 4325 
Q 2100 4325 2488 3828 
Q 2972 3213 2972 2159 
Q 2972 1422 2759 906 
Q 2547 391 2217 158 
Q 1888 -75 1581 -75 
Q 975 -75 572 641 
Q 231 1244 231 2094 
z
M 844 2016 
Q 844 1141 1059 588 
Q 1238 122 1591 122 
Q 1759 122 1940 273 
Q 2122 425 2216 781 
Q 2359 1319 2359 2297 
Q 2359 3022 2209 3506 
Q 2097 3866 1919 4016 
Q 1791 4119 1609 4119 
Q 1397 4119 1231 3928 
Q 1006 3669 925 3112 
Q 844 2556 844 2016 
z
" transform="scale(0.015625)"/>
       </defs>
       <use xlink:href="#TimesNewRomanPSMT-31" transform="translate(0 0.582813)"/>
       <use xlink:href="#TimesNewRomanPSMT-30" transform="translate(50 0.582813)"/>
       <use xlink:href="#TimesNewRomanPSMT-30" transform="translate(101.502813 60.695312) scale(0.7)"/>
      </g>
     </g>
    </g>
    <g id="xtick_2">
     <g id="line2d_4">
      <path d="M 299.276403 199.306375 
L 299.276403 21.5325 
" clip-path="url(#pfc9e387246)" style="fill: none; stroke-dasharray: 1.665,0.72; stroke-dashoffset: 0; stroke: #b0b0b0; stroke-opacity: 0.4; stroke-width: 0.45"/>
     </g>
     <g id="line2d_5">
      <g>
       <use xlink:href="#m4450b3f324" x="299.276403" y="199.306375" style="stroke: #000000; stroke-width: 0.8"/>
      </g>
     </g>
     <g id="text_2">
      <!-- $\mathdefault{10^{1}}$ -->
      <g transform="translate(292.931403 214.281219) scale(0.09 -0.09)">
       <use xlink:href="#TimesNewRomanPSMT-31" transform="translate(0 0.582813)"/>
       <use xlink:href="#TimesNewRomanPSMT-30" transform="translate(50 0.582813)"/>
       <use xlink:href="#TimesNewRomanPSMT-31" transform="translate(101.502813 60.695312) scale(0.7)"/>
      </g>
     </g>
    </g>
    <g id="xtick_3">
     <g id="line2d_6">
      <path d="M 425.754709 199.306375 
L 425.754709 21.5325 
" clip-path="url(#pfc9e387246)" style="fill: none; stroke-dasharray: 1.665,0.72; stroke-dashoffset: 0; stroke: #b0b0b0; stroke-opacity: 0.4; stroke-width: 0.45"/>
     </g>
     <g id="line2d_7">
      <g>
       <use xlink:href="#m4450b3f324" x="425.754709" y="199.306375" style="stroke: #000000; stroke-width: 0.8"/>
      </g>
     </g>
     <g id="text_3">
      <!-- $\mathdefault{10^{2}}$ -->
      <g transform="translate(419.409709 214.281219) scale(0.09 -0.09)">
       <defs>
        <path id="TimesNewRomanPSMT-32" d="M 2934 816 
L 2638 0 
L 138 0 
L 138 116 
Q 1241 1122 1691 1759 
Q 2141 2397 2141 2925 
Q 2141 3328 1894 3587 
Q 1647 3847 1303 3847 
Q 991 3847 742 3664 
Q 494 3481 375 3128 
L 259 3128 
Q 338 3706 661 4015 
Q 984 4325 1469 4325 
Q 1984 4325 2329 3994 
Q 2675 3663 2675 3213 
Q 2675 2891 2525 2569 
Q 2294 2063 1775 1497 
Q 997 647 803 472 
L 1909 472 
Q 2247 472 2383 497 
Q 2519 522 2628 598 
Q 2738 675 2819 816 
L 2934 816 
z
" transform="scale(0.015625)"/>
       </defs>
       <use xlink:href="#TimesNewRomanPSMT-31" transform="translate(0 0.582813)"/>
       <use xlink:href="#TimesNewRomanPSMT-30" transform="translate(50 0.582813)"/>
       <use xlink:href="#TimesNewRomanPSMT-32" transform="translate(101.502813 60.695312) scale(0.7)"/>
      </g>
     </g>
    </g>
    <g id="text_4">
     <!-- ε (epsilon) [log scale] -->
     <g transform="translate(209.416875 227.150125) scale(0.1 -0.1)">
      <defs>
       <path id="TimesNewRomanPSMT-3b5" d="M 988 1516 
Q 372 1734 372 2178 
Q 372 2528 698 2737 
Q 1025 2947 1509 2947 
Q 1950 2947 2209 2801 
Q 2469 2656 2469 2453 
Q 2469 2347 2387 2267 
Q 2306 2188 2200 2188 
Q 2025 2188 1913 2431 
Q 1756 2769 1444 2769 
Q 1197 2769 1037 2606 
Q 878 2444 878 2153 
Q 878 1581 1469 1581 
Q 1531 1581 1613 1594 
Q 1753 1613 1831 1613 
Q 2022 1613 2022 1503 
Q 2022 1381 1828 1381 
Q 1759 1381 1622 1403 
Q 1519 1422 1463 1422 
Q 838 1422 838 784 
Q 838 475 1003 286 
Q 1169 97 1466 97 
Q 1838 97 1959 481 
Q 2022 684 2098 762 
Q 2175 841 2303 841 
Q 2409 841 2495 764 
Q 2581 688 2581 569 
Q 2581 284 2262 98 
Q 1944 -88 1491 -88 
Q 994 -88 608 150 
Q 222 388 222 784 
Q 222 1281 988 1516 
z
" transform="scale(0.015625)"/>
       <path id="TimesNewRomanPSMT-20" transform="scale(0.015625)"/>
       <path id="TimesNewRomanPSMT-28" d="M 1988 -1253 
L 1988 -1369 
Q 1516 -1131 1200 -813 
Q 750 -359 506 256 
Q 263 872 263 1534 
Q 263 2503 741 3301 
Q 1219 4100 1988 4444 
L 1988 4313 
Q 1603 4100 1356 3731 
Q 1109 3363 987 2797 
Q 866 2231 866 1616 
Q 866 947 969 400 
Q 1050 -31 1165 -292 
Q 1281 -553 1476 -793 
Q 1672 -1034 1988 -1253 
z
" transform="scale(0.015625)"/>
       <path id="TimesNewRomanPSMT-65" d="M 681 1784 
Q 678 1147 991 784 
Q 1303 422 1725 422 
Q 2006 422 2214 576 
Q 2422 731 2563 1106 
L 2659 1044 
Q 2594 616 2278 264 
Q 1963 -88 1488 -88 
Q 972 -88 605 314 
Q 238 716 238 1394 
Q 238 2128 614 2539 
Q 991 2950 1559 2950 
Q 2041 2950 2350 2633 
Q 2659 2316 2659 1784 
L 681 1784 
z
M 681 1966 
L 2006 1966 
Q 1991 2241 1941 2353 
Q 1863 2528 1708 2628 
Q 1553 2728 1384 2728 
Q 1125 2728 920 2526 
Q 716 2325 681 1966 
z
" transform="scale(0.015625)"/>
       <path id="TimesNewRomanPSMT-70" d="M -6 2578 
L 875 2934 
L 994 2934 
L 994 2266 
Q 1216 2644 1439 2795 
Q 1663 2947 1909 2947 
Q 2341 2947 2628 2609 
Q 2981 2197 2981 1534 
Q 2981 794 2556 309 
Q 2206 -88 1675 -88 
Q 1444 -88 1275 -22 
Q 1150 25 994 166 
L 994 -706 
Q 994 -1000 1030 -1079 
Q 1066 -1159 1155 -1206 
Q 1244 -1253 1478 -1253 
L 1478 -1369 
L -22 -1369 
L -22 -1253 
L 56 -1253 
Q 228 -1256 350 -1188 
Q 409 -1153 442 -1076 
Q 475 -1000 475 -688 
L 475 2019 
Q 475 2297 450 2372 
Q 425 2447 370 2484 
Q 316 2522 222 2522 
Q 147 2522 31 2478 
L -6 2578 
z
M 994 2081 
L 994 1013 
Q 994 666 1022 556 
Q 1066 375 1236 237 
Q 1406 100 1666 100 
Q 1978 100 2172 344 
Q 2425 663 2425 1241 
Q 2425 1897 2138 2250 
Q 1938 2494 1663 2494 
Q 1513 2494 1366 2419 
Q 1253 2363 994 2081 
z
" transform="scale(0.015625)"/>
       <path id="TimesNewRomanPSMT-73" d="M 2050 2947 
L 2050 1972 
L 1947 1972 
Q 1828 2431 1642 2597 
Q 1456 2763 1169 2763 
Q 950 2763 815 2647 
Q 681 2531 681 2391 
Q 681 2216 781 2091 
Q 878 1963 1175 1819 
L 1631 1597 
Q 2266 1288 2266 781 
Q 2266 391 1970 151 
Q 1675 -88 1309 -88 
Q 1047 -88 709 6 
Q 606 38 541 38 
Q 469 38 428 -44 
L 325 -44 
L 325 978 
L 428 978 
Q 516 541 762 319 
Q 1009 97 1316 97 
Q 1531 97 1667 223 
Q 1803 350 1803 528 
Q 1803 744 1651 891 
Q 1500 1038 1047 1263 
Q 594 1488 453 1669 
Q 313 1847 313 2119 
Q 313 2472 555 2709 
Q 797 2947 1181 2947 
Q 1350 2947 1591 2875 
Q 1750 2828 1803 2828 
Q 1853 2828 1881 2850 
Q 1909 2872 1947 2947 
L 2050 2947 
z
" transform="scale(0.015625)"/>
       <path id="TimesNewRomanPSMT-69" d="M 928 4444 
Q 1059 4444 1151 4351 
Q 1244 4259 1244 4128 
Q 1244 3997 1151 3903 
Q 1059 3809 928 3809 
Q 797 3809 703 3903 
Q 609 3997 609 4128 
Q 609 4259 701 4351 
Q 794 4444 928 4444 
z
M 1188 2947 
L 1188 647 
Q 1188 378 1227 289 
Q 1266 200 1342 156 
Q 1419 113 1622 113 
L 1622 0 
L 231 0 
L 231 113 
Q 441 113 512 153 
Q 584 194 626 287 
Q 669 381 669 647 
L 669 1750 
Q 669 2216 641 2353 
Q 619 2453 572 2492 
Q 525 2531 444 2531 
Q 356 2531 231 2484 
L 188 2597 
L 1050 2947 
L 1188 2947 
z
" transform="scale(0.015625)"/>
       <path id="TimesNewRomanPSMT-6c" d="M 1184 4444 
L 1184 647 
Q 1184 378 1223 290 
Q 1263 203 1344 158 
Q 1425 113 1647 113 
L 1647 0 
L 244 0 
L 244 113 
Q 441 113 512 153 
Q 584 194 625 287 
Q 666 381 666 647 
L 666 3247 
Q 666 3731 644 3842 
Q 622 3953 573 3993 
Q 525 4034 450 4034 
Q 369 4034 244 3984 
L 191 4094 
L 1044 4444 
L 1184 4444 
z
" transform="scale(0.015625)"/>
       <path id="TimesNewRomanPSMT-6f" d="M 1600 2947 
Q 2250 2947 2644 2453 
Q 2978 2031 2978 1484 
Q 2978 1100 2793 706 
Q 2609 313 2286 112 
Q 1963 -88 1566 -88 
Q 919 -88 538 428 
Q 216 863 216 1403 
Q 216 1797 411 2186 
Q 606 2575 925 2761 
Q 1244 2947 1600 2947 
z
M 1503 2744 
Q 1338 2744 1170 2645 
Q 1003 2547 900 2300 
Q 797 2053 797 1666 
Q 797 1041 1045 587 
Q 1294 134 1700 134 
Q 2003 134 2200 384 
Q 2397 634 2397 1244 
Q 2397 2006 2069 2444 
Q 1847 2744 1503 2744 
z
" transform="scale(0.015625)"/>
       <path id="TimesNewRomanPSMT-6e" d="M 1034 2341 
Q 1538 2947 1994 2947 
Q 2228 2947 2397 2830 
Q 2566 2713 2666 2444 
Q 2734 2256 2734 1869 
L 2734 647 
Q 2734 375 2778 278 
Q 2813 200 2889 156 
Q 2966 113 3172 113 
L 3172 0 
L 1756 0 
L 1756 113 
L 1816 113 
Q 2016 113 2095 173 
Q 2175 234 2206 353 
Q 2219 400 2219 647 
L 2219 1819 
Q 2219 2209 2117 2386 
Q 2016 2563 1775 2563 
Q 1403 2563 1034 2156 
L 1034 647 
Q 1034 356 1069 288 
Q 1113 197 1189 155 
Q 1266 113 1500 113 
L 1500 0 
L 84 0 
L 84 113 
L 147 113 
Q 366 113 442 223 
Q 519 334 519 647 
L 519 1709 
Q 519 2225 495 2337 
Q 472 2450 423 2490 
Q 375 2531 294 2531 
Q 206 2531 84 2484 
L 38 2597 
L 900 2947 
L 1034 2947 
L 1034 2341 
z
" transform="scale(0.015625)"/>
       <path id="TimesNewRomanPSMT-29" d="M 144 4313 
L 144 4444 
Q 619 4209 934 3891 
Q 1381 3434 1625 2820 
Q 1869 2206 1869 1541 
Q 1869 572 1392 -226 
Q 916 -1025 144 -1369 
L 144 -1253 
Q 528 -1038 776 -670 
Q 1025 -303 1145 264 
Q 1266 831 1266 1447 
Q 1266 2113 1163 2663 
Q 1084 3094 967 3353 
Q 850 3613 656 3853 
Q 463 4094 144 4313 
z
" transform="scale(0.015625)"/>
       <path id="TimesNewRomanPSMT-5b" d="M 1900 -1269 
L 525 -1269 
L 525 4334 
L 1900 4334 
L 1900 4088 
L 994 4088 
L 994 -1025 
L 1900 -1025 
L 1900 -1269 
z
" transform="scale(0.015625)"/>
       <path id="TimesNewRomanPSMT-67" d="M 966 1044 
Q 703 1172 562 1401 
Q 422 1631 422 1909 
Q 422 2334 742 2640 
Q 1063 2947 1563 2947 
Q 1972 2947 2272 2747 
L 2878 2747 
Q 3013 2747 3034 2739 
Q 3056 2731 3066 2713 
Q 3084 2684 3084 2613 
Q 3084 2531 3069 2500 
Q 3059 2484 3036 2475 
Q 3013 2466 2878 2466 
L 2506 2466 
Q 2681 2241 2681 1891 
Q 2681 1491 2375 1206 
Q 2069 922 1553 922 
Q 1341 922 1119 984 
Q 981 866 932 777 
Q 884 688 884 625 
Q 884 572 936 522 
Q 988 472 1138 450 
Q 1225 438 1575 428 
Q 2219 413 2409 384 
Q 2700 344 2873 169 
Q 3047 -6 3047 -263 
Q 3047 -616 2716 -925 
Q 2228 -1381 1444 -1381 
Q 841 -1381 425 -1109 
Q 191 -953 191 -784 
Q 191 -709 225 -634 
Q 278 -519 444 -313 
Q 466 -284 763 25 
Q 600 122 533 198 
Q 466 275 466 372 
Q 466 481 555 628 
Q 644 775 966 1044 
z
M 1509 2797 
Q 1278 2797 1122 2612 
Q 966 2428 966 2047 
Q 966 1553 1178 1281 
Q 1341 1075 1591 1075 
Q 1828 1075 1981 1253 
Q 2134 1431 2134 1813 
Q 2134 2309 1919 2591 
Q 1759 2797 1509 2797 
z
M 934 0 
Q 788 -159 713 -296 
Q 638 -434 638 -550 
Q 638 -700 819 -813 
Q 1131 -1006 1722 -1006 
Q 2284 -1006 2551 -807 
Q 2819 -609 2819 -384 
Q 2819 -222 2659 -153 
Q 2497 -84 2016 -72 
Q 1313 -53 934 0 
z
" transform="scale(0.015625)"/>
       <path id="TimesNewRomanPSMT-63" d="M 2631 1088 
Q 2516 522 2178 217 
Q 1841 -88 1431 -88 
Q 944 -88 581 321 
Q 219 731 219 1428 
Q 219 2103 620 2525 
Q 1022 2947 1584 2947 
Q 2006 2947 2278 2723 
Q 2550 2500 2550 2259 
Q 2550 2141 2473 2067 
Q 2397 1994 2259 1994 
Q 2075 1994 1981 2113 
Q 1928 2178 1911 2362 
Q 1894 2547 1784 2644 
Q 1675 2738 1481 2738 
Q 1169 2738 978 2506 
Q 725 2200 725 1697 
Q 725 1184 976 792 
Q 1228 400 1656 400 
Q 1963 400 2206 609 
Q 2378 753 2541 1131 
L 2631 1088 
z
" transform="scale(0.015625)"/>
       <path id="TimesNewRomanPSMT-61" d="M 1822 413 
Q 1381 72 1269 19 
Q 1100 -59 909 -59 
Q 613 -59 420 144 
Q 228 347 228 678 
Q 228 888 322 1041 
Q 450 1253 767 1440 
Q 1084 1628 1822 1897 
L 1822 2009 
Q 1822 2438 1686 2597 
Q 1550 2756 1291 2756 
Q 1094 2756 978 2650 
Q 859 2544 859 2406 
L 866 2225 
Q 866 2081 792 2003 
Q 719 1925 600 1925 
Q 484 1925 411 2006 
Q 338 2088 338 2228 
Q 338 2497 613 2722 
Q 888 2947 1384 2947 
Q 1766 2947 2009 2819 
Q 2194 2722 2281 2516 
Q 2338 2381 2338 1966 
L 2338 994 
Q 2338 584 2353 492 
Q 2369 400 2405 369 
Q 2441 338 2488 338 
Q 2538 338 2575 359 
Q 2641 400 2828 588 
L 2828 413 
Q 2478 -56 2159 -56 
Q 2006 -56 1915 50 
Q 1825 156 1822 413 
z
M 1822 616 
L 1822 1706 
Q 1350 1519 1213 1441 
Q 966 1303 859 1153 
Q 753 1003 753 825 
Q 753 600 887 451 
Q 1022 303 1197 303 
Q 1434 303 1822 616 
z
" transform="scale(0.015625)"/>
       <path id="TimesNewRomanPSMT-5d" d="M 234 4334 
L 1609 4334 
L 1609 -1272 
L 234 -1272 
L 234 -1025 
L 1141 -1025 
L 1141 4088 
L 234 4088 
L 234 4334 
z
" transform="scale(0.015625)"/>
      </defs>
      <use xlink:href="#TimesNewRomanPSMT-3b5"/>
      <use xlink:href="#TimesNewRomanPSMT-20" transform="translate(41.992188 0)"/>
      <use xlink:href="#TimesNewRomanPSMT-28" transform="translate(66.992188 0)"/>
      <use xlink:href="#TimesNewRomanPSMT-65" transform="translate(100.292969 0)"/>
      <use xlink:href="#TimesNewRomanPSMT-70" transform="translate(144.677734 0)"/>
      <use xlink:href="#TimesNewRomanPSMT-73" transform="translate(194.677734 0)"/>
      <use xlink:href="#TimesNewRomanPSMT-69" transform="translate(233.59375 0)"/>
      <use xlink:href="#TimesNewRomanPSMT-6c" transform="translate(261.376953 0)"/>
      <use xlink:href="#TimesNewRomanPSMT-6f" transform="translate(289.160156 0)"/>
      <use xlink:href="#TimesNewRomanPSMT-6e" transform="translate(339.160156 0)"/>
      <use xlink:href="#TimesNewRomanPSMT-29" transform="translate(389.160156 0)"/>
      <use xlink:href="#TimesNewRomanPSMT-20" transform="translate(422.460938 0)"/>
      <use xlink:href="#TimesNewRomanPSMT-5b" transform="translate(447.460938 0)"/>
      <use xlink:href="#TimesNewRomanPSMT-6c" transform="translate(480.761719 0)"/>
      <use xlink:href="#TimesNewRomanPSMT-6f" transform="translate(508.544922 0)"/>
      <use xlink:href="#TimesNewRomanPSMT-67" transform="translate(558.544922 0)"/>
      <use xlink:href="#TimesNewRomanPSMT-20" transform="translate(608.544922 0)"/>
      <use xlink:href="#TimesNewRomanPSMT-73" transform="translate(633.544922 0)"/>
      <use xlink:href="#TimesNewRomanPSMT-63" transform="translate(672.460938 0)"/>
      <use xlink:href="#TimesNewRomanPSMT-61" transform="translate(716.845703 0)"/>
      <use xlink:href="#TimesNewRomanPSMT-6c" transform="translate(761.230469 0)"/>
      <use xlink:href="#TimesNewRomanPSMT-65" transform="translate(789.013672 0)"/>
      <use xlink:href="#TimesNewRomanPSMT-5d" transform="translate(833.398438 0)"/>
     </g>
    </g>
   </g>
   <g id="matplotlib.axis_2">
    <g id="ytick_1">
     <g id="line2d_8">
      <path d="M 52.032813 169.677396 
L 453.472812 169.677396 
" clip-path="url(#pfc9e387246)" style="fill: none; stroke-dasharray: 1.665,0.72; stroke-dashoffset: 0; stroke: #b0b0b0; stroke-opacity: 0.4; stroke-width: 0.45"/>
     </g>
     <g id="line2d_9">
      <defs>
       <path id="m3bdb2de345" d="M 0 0 
L -3.5 0 
" style="stroke: #000000; stroke-width: 0.8"/>
      </defs>
      <g>
       <use xlink:href="#m3bdb2de345" x="52.032813" y="169.677396" style="stroke: #000000; stroke-width: 0.8"/>
      </g>
     </g>
     <g id="text_5">
      <!-- 0.8390 -->
      <g transform="translate(20.282813 172.802083) scale(0.09 -0.09)">
       <defs>
        <path id="TimesNewRomanPSMT-2e" d="M 800 606 
Q 947 606 1047 504 
Q 1147 403 1147 259 
Q 1147 116 1045 14 
Q 944 -88 800 -88 
Q 656 -88 554 14 
Q 453 116 453 259 
Q 453 406 554 506 
Q 656 606 800 606 
z
" transform="scale(0.015625)"/>
        <path id="TimesNewRomanPSMT-38" d="M 1228 2134 
Q 725 2547 579 2797 
Q 434 3047 434 3316 
Q 434 3728 753 4026 
Q 1072 4325 1600 4325 
Q 2113 4325 2425 4047 
Q 2738 3769 2738 3413 
Q 2738 3175 2569 2928 
Q 2400 2681 1866 2347 
Q 2416 1922 2594 1678 
Q 2831 1359 2831 1006 
Q 2831 559 2490 242 
Q 2150 -75 1597 -75 
Q 994 -75 656 303 
Q 388 606 388 966 
Q 388 1247 577 1523 
Q 766 1800 1228 2134 
z
M 1719 2469 
Q 2094 2806 2194 3001 
Q 2294 3197 2294 3444 
Q 2294 3772 2109 3958 
Q 1925 4144 1606 4144 
Q 1288 4144 1088 3959 
Q 888 3775 888 3528 
Q 888 3366 970 3203 
Q 1053 3041 1206 2894 
L 1719 2469 
z
M 1375 2016 
Q 1116 1797 991 1539 
Q 866 1281 866 981 
Q 866 578 1086 336 
Q 1306 94 1647 94 
Q 1984 94 2187 284 
Q 2391 475 2391 747 
Q 2391 972 2272 1150 
Q 2050 1481 1375 2016 
z
" transform="scale(0.015625)"/>
        <path id="TimesNewRomanPSMT-33" d="M 325 3431 
Q 506 3859 782 4092 
Q 1059 4325 1472 4325 
Q 1981 4325 2253 3994 
Q 2459 3747 2459 3466 
Q 2459 3003 1878 2509 
Q 2269 2356 2469 2072 
Q 2669 1788 2669 1403 
Q 2669 853 2319 450 
Q 1863 -75 997 -75 
Q 569 -75 414 31 
Q 259 138 259 259 
Q 259 350 332 419 
Q 406 488 509 488 
Q 588 488 669 463 
Q 722 447 909 348 
Q 1097 250 1169 231 
Q 1284 197 1416 197 
Q 1734 197 1970 444 
Q 2206 691 2206 1028 
Q 2206 1275 2097 1509 
Q 2016 1684 1919 1775 
Q 1784 1900 1550 2001 
Q 1316 2103 1072 2103 
L 972 2103 
L 972 2197 
Q 1219 2228 1467 2375 
Q 1716 2522 1828 2728 
Q 1941 2934 1941 3181 
Q 1941 3503 1739 3701 
Q 1538 3900 1238 3900 
Q 753 3900 428 3381 
L 325 3431 
z
" transform="scale(0.015625)"/>
        <path id="TimesNewRomanPSMT-39" d="M 338 -88 
L 338 28 
Q 744 34 1094 217 
Q 1444 400 1770 856 
Q 2097 1313 2225 1859 
Q 1734 1544 1338 1544 
Q 891 1544 572 1889 
Q 253 2234 253 2806 
Q 253 3363 572 3797 
Q 956 4325 1575 4325 
Q 2097 4325 2469 3894 
Q 2925 3359 2925 2575 
Q 2925 1869 2578 1258 
Q 2231 647 1613 244 
Q 1109 -88 516 -88 
L 338 -88 
z
M 2275 2091 
Q 2331 2497 2331 2741 
Q 2331 3044 2228 3395 
Q 2125 3747 1936 3934 
Q 1747 4122 1506 4122 
Q 1228 4122 1018 3872 
Q 809 3622 809 3128 
Q 809 2469 1088 2097 
Q 1291 1828 1588 1828 
Q 1731 1828 1928 1897 
Q 2125 1966 2275 2091 
z
" transform="scale(0.015625)"/>
       </defs>
       <use xlink:href="#TimesNewRomanPSMT-30"/>
       <use xlink:href="#TimesNewRomanPSMT-2e" transform="translate(50 0)"/>
       <use xlink:href="#TimesNewRomanPSMT-38" transform="translate(75 0)"/>
       <use xlink:href="#TimesNewRomanPSMT-33" transform="translate(125 0)"/>
       <use xlink:href="#TimesNewRomanPSMT-39" transform="translate(175 0)"/>
       <use xlink:href="#TimesNewRomanPSMT-30" transform="translate(225 0)"/>
      </g>
     </g>
    </g>
    <g id="ytick_2">
     <g id="line2d_10">
      <path d="M 52.032813 139.546231 
L 453.472812 139.546231 
" clip-path="url(#pfc9e387246)" style="fill: none; stroke-dasharray: 1.665,0.72; stroke-dashoffset: 0; stroke: #b0b0b0; stroke-opacity: 0.4; stroke-width: 0.45"/>
     </g>
     <g id="line2d_11">
      <g>
       <use xlink:href="#m3bdb2de345" x="52.032813" y="139.546231" style="stroke: #000000; stroke-width: 0.8"/>
      </g>
     </g>
     <g id="text_6">
      <!-- 0.8395 -->
      <g transform="translate(20.282813 142.670918) scale(0.09 -0.09)">
       <defs>
        <path id="TimesNewRomanPSMT-35" d="M 2778 4238 
L 2534 3706 
L 1259 3706 
L 981 3138 
Q 1809 3016 2294 2522 
Q 2709 2097 2709 1522 
Q 2709 1188 2573 903 
Q 2438 619 2231 419 
Q 2025 219 1772 97 
Q 1413 -75 1034 -75 
Q 653 -75 479 54 
Q 306 184 306 341 
Q 306 428 378 495 
Q 450 563 559 563 
Q 641 563 702 538 
Q 763 513 909 409 
Q 1144 247 1384 247 
Q 1750 247 2026 523 
Q 2303 800 2303 1197 
Q 2303 1581 2056 1914 
Q 1809 2247 1375 2428 
Q 1034 2569 447 2591 
L 1259 4238 
L 2778 4238 
z
" transform="scale(0.015625)"/>
       </defs>
       <use xlink:href="#TimesNewRomanPSMT-30"/>
       <use xlink:href="#TimesNewRomanPSMT-2e" transform="translate(50 0)"/>
       <use xlink:href="#TimesNewRomanPSMT-38" transform="translate(75 0)"/>
       <use xlink:href="#TimesNewRomanPSMT-33" transform="translate(125 0)"/>
       <use xlink:href="#TimesNewRomanPSMT-39" transform="translate(175 0)"/>
       <use xlink:href="#TimesNewRomanPSMT-35" transform="translate(225 0)"/>
      </g>
     </g>
    </g>
    <g id="ytick_3">
     <g id="line2d_12">
      <path d="M 52.032813 109.415065 
L 453.472812 109.415065 
" clip-path="url(#pfc9e387246)" style="fill: none; stroke-dasharray: 1.665,0.72; stroke-dashoffset: 0; stroke: #b0b0b0; stroke-opacity: 0.4; stroke-width: 0.45"/>
     </g>
     <g id="line2d_13">
      <g>
       <use xlink:href="#m3bdb2de345" x="52.032813" y="109.415065" style="stroke: #000000; stroke-width: 0.8"/>
      </g>
     </g>
     <g id="text_7">
      <!-- 0.8400 -->
      <g transform="translate(20.282813 112.539753) scale(0.09 -0.09)">
       <defs>
        <path id="TimesNewRomanPSMT-34" d="M 2978 1563 
L 2978 1119 
L 2409 1119 
L 2409 0 
L 1894 0 
L 1894 1119 
L 100 1119 
L 100 1519 
L 2066 4325 
L 2409 4325 
L 2409 1563 
L 2978 1563 
z
M 1894 1563 
L 1894 3666 
L 406 1563 
L 1894 1563 
z
" transform="scale(0.015625)"/>
       </defs>
       <use xlink:href="#TimesNewRomanPSMT-30"/>
       <use xlink:href="#TimesNewRomanPSMT-2e" transform="translate(50 0)"/>
       <use xlink:href="#TimesNewRomanPSMT-38" transform="translate(75 0)"/>
       <use xlink:href="#TimesNewRomanPSMT-34" transform="translate(125 0)"/>
       <use xlink:href="#TimesNewRomanPSMT-30" transform="translate(175 0)"/>
       <use xlink:href="#TimesNewRomanPSMT-30" transform="translate(225 0)"/>
      </g>
     </g>
    </g>
    <g id="ytick_4">
     <g id="line2d_14">
      <path d="M 52.032813 79.2839 
L 453.472812 79.2839 
" clip-path="url(#pfc9e387246)" style="fill: none; stroke-dasharray: 1.665,0.72; stroke-dashoffset: 0; stroke: #b0b0b0; stroke-opacity: 0.4; stroke-width: 0.45"/>
     </g>
     <g id="line2d_15">
      <g>
       <use xlink:href="#m3bdb2de345" x="52.032813" y="79.2839" style="stroke: #000000; stroke-width: 0.8"/>
      </g>
     </g>
     <g id="text_8">
      <!-- 0.8405 -->
      <g transform="translate(20.282813 82.408588) scale(0.09 -0.09)">
       <use xlink:href="#TimesNewRomanPSMT-30"/>
       <use xlink:href="#TimesNewRomanPSMT-2e" transform="translate(50 0)"/>
       <use xlink:href="#TimesNewRomanPSMT-38" transform="translate(75 0)"/>
       <use xlink:href="#TimesNewRomanPSMT-34" transform="translate(125 0)"/>
       <use xlink:href="#TimesNewRomanPSMT-30" transform="translate(175 0)"/>
       <use xlink:href="#TimesNewRomanPSMT-35" transform="translate(225 0)"/>
      </g>
     </g>
    </g>
    <g id="ytick_5">
     <g id="line2d_16">
      <path d="M 52.032813 49.152735 
L 453.472812 49.152735 
" clip-path="url(#pfc9e387246)" style="fill: none; stroke-dasharray: 1.665,0.72; stroke-dashoffset: 0; stroke: #b0b0b0; stroke-opacity: 0.4; stroke-width: 0.45"/>
     </g>
     <g id="line2d_17">
      <g>
       <use xlink:href="#m3bdb2de345" x="52.032813" y="49.152735" style="stroke: #000000; stroke-width: 0.8"/>
      </g>
     </g>
     <g id="text_9">
      <!-- 0.8410 -->
      <g transform="translate(20.282813 52.277422) scale(0.09 -0.09)">
       <use xlink:href="#TimesNewRomanPSMT-30"/>
       <use xlink:href="#TimesNewRomanPSMT-2e" transform="translate(50 0)"/>
       <use xlink:href="#TimesNewRomanPSMT-38" transform="translate(75 0)"/>
       <use xlink:href="#TimesNewRomanPSMT-34" transform="translate(125 0)"/>
       <use xlink:href="#TimesNewRomanPSMT-31" transform="translate(175 0)"/>
       <use xlink:href="#TimesNewRomanPSMT-30" transform="translate(225 0)"/>
      </g>
     </g>
    </g>
    <g id="text_10">
     <!-- Test accuracy -->
     <g transform="translate(14.125 137.690531) rotate(-90) scale(0.1 -0.1)">
      <defs>
       <path id="TimesNewRomanPSMT-54" d="M 3703 4238 
L 3750 3244 
L 3631 3244 
Q 3597 3506 3538 3619 
Q 3441 3800 3280 3886 
Q 3119 3972 2856 3972 
L 2259 3972 
L 2259 734 
Q 2259 344 2344 247 
Q 2463 116 2709 116 
L 2856 116 
L 2856 0 
L 1059 0 
L 1059 116 
L 1209 116 
Q 1478 116 1591 278 
Q 1659 378 1659 734 
L 1659 3972 
L 1150 3972 
Q 853 3972 728 3928 
Q 566 3869 450 3700 
Q 334 3531 313 3244 
L 194 3244 
L 244 4238 
L 3703 4238 
z
" transform="scale(0.015625)"/>
       <path id="TimesNewRomanPSMT-74" d="M 1031 3803 
L 1031 2863 
L 1700 2863 
L 1700 2644 
L 1031 2644 
L 1031 788 
Q 1031 509 1111 412 
Q 1191 316 1316 316 
Q 1419 316 1516 380 
Q 1613 444 1666 569 
L 1788 569 
Q 1678 263 1478 108 
Q 1278 -47 1066 -47 
Q 922 -47 784 33 
Q 647 113 581 261 
Q 516 409 516 719 
L 516 2644 
L 63 2644 
L 63 2747 
Q 234 2816 414 2980 
Q 594 3144 734 3369 
Q 806 3488 934 3803 
L 1031 3803 
z
" transform="scale(0.015625)"/>
       <path id="TimesNewRomanPSMT-75" d="M 2709 2863 
L 2709 1128 
Q 2709 631 2732 520 
Q 2756 409 2807 365 
Q 2859 322 2928 322 
Q 3025 322 3147 375 
L 3191 266 
L 2334 -88 
L 2194 -88 
L 2194 519 
Q 1825 119 1631 15 
Q 1438 -88 1222 -88 
Q 981 -88 804 51 
Q 628 191 559 409 
Q 491 628 491 1028 
L 491 2306 
Q 491 2509 447 2587 
Q 403 2666 317 2708 
Q 231 2750 6 2747 
L 6 2863 
L 1009 2863 
L 1009 947 
Q 1009 547 1148 422 
Q 1288 297 1484 297 
Q 1619 297 1789 381 
Q 1959 466 2194 703 
L 2194 2325 
Q 2194 2569 2105 2655 
Q 2016 2741 1734 2747 
L 1734 2863 
L 2709 2863 
z
" transform="scale(0.015625)"/>
       <path id="TimesNewRomanPSMT-72" d="M 1038 2947 
L 1038 2303 
Q 1397 2947 1775 2947 
Q 1947 2947 2059 2842 
Q 2172 2738 2172 2600 
Q 2172 2478 2090 2393 
Q 2009 2309 1897 2309 
Q 1788 2309 1652 2417 
Q 1516 2525 1450 2525 
Q 1394 2525 1328 2463 
Q 1188 2334 1038 2041 
L 1038 669 
Q 1038 431 1097 309 
Q 1138 225 1241 169 
Q 1344 113 1538 113 
L 1538 0 
L 72 0 
L 72 113 
Q 291 113 397 181 
Q 475 231 506 341 
Q 522 394 522 644 
L 522 1753 
Q 522 2253 501 2348 
Q 481 2444 426 2487 
Q 372 2531 291 2531 
Q 194 2531 72 2484 
L 41 2597 
L 906 2947 
L 1038 2947 
z
" transform="scale(0.015625)"/>
       <path id="TimesNewRomanPSMT-79" d="M 38 2863 
L 1372 2863 
L 1372 2747 
L 1306 2747 
Q 1166 2747 1095 2686 
Q 1025 2625 1025 2534 
Q 1025 2413 1128 2197 
L 1825 753 
L 2466 2334 
Q 2519 2463 2519 2588 
Q 2519 2644 2497 2672 
Q 2472 2706 2419 2726 
Q 2366 2747 2231 2747 
L 2231 2863 
L 3163 2863 
L 3163 2747 
Q 3047 2734 2984 2696 
Q 2922 2659 2847 2556 
Q 2819 2513 2741 2316 
L 1575 -541 
Q 1406 -956 1132 -1168 
Q 859 -1381 606 -1381 
Q 422 -1381 303 -1275 
Q 184 -1169 184 -1031 
Q 184 -900 270 -820 
Q 356 -741 506 -741 
Q 609 -741 788 -809 
Q 913 -856 944 -856 
Q 1038 -856 1148 -759 
Q 1259 -663 1372 -384 
L 1575 113 
L 547 2272 
Q 500 2369 397 2513 
Q 319 2622 269 2659 
Q 197 2709 38 2747 
L 38 2863 
z
" transform="scale(0.015625)"/>
      </defs>
      <use xlink:href="#TimesNewRomanPSMT-54"/>
      <use xlink:href="#TimesNewRomanPSMT-65" transform="translate(54.083984 0)"/>
      <use xlink:href="#TimesNewRomanPSMT-73" transform="translate(98.46875 0)"/>
      <use xlink:href="#TimesNewRomanPSMT-74" transform="translate(137.384766 0)"/>
      <use xlink:href="#TimesNewRomanPSMT-20" transform="translate(165.167969 0)"/>
      <use xlink:href="#TimesNewRomanPSMT-61" transform="translate(190.167969 0)"/>
      <use xlink:href="#TimesNewRomanPSMT-63" transform="translate(234.552734 0)"/>
      <use xlink:href="#TimesNewRomanPSMT-63" transform="translate(278.9375 0)"/>
      <use xlink:href="#TimesNewRomanPSMT-75" transform="translate(323.322266 0)"/>
      <use xlink:href="#TimesNewRomanPSMT-72" transform="translate(373.322266 0)"/>
      <use xlink:href="#TimesNewRomanPSMT-61" transform="translate(406.623047 0)"/>
      <use xlink:href="#TimesNewRomanPSMT-63" transform="translate(451.007812 0)"/>
      <use xlink:href="#TimesNewRomanPSMT-79" transform="translate(495.392578 0)"/>
     </g>
    </g>
   </g>
   <g id="PathCollection_1">
    <path d="M 435.176624 159.495758 
C 435.672774 159.495758 436.148669 159.298636 436.4995 158.947805 
C 436.85033 158.596975 437.047453 158.121079 437.047453 157.62493 
C 437.047453 157.12878 436.85033 156.652885 436.4995 156.302054 
C 436.148669 155.951223 435.672774 155.754101 435.176624 155.754101 
C 434.680475 155.754101 434.204579 155.951223 433.853748 156.302054 
C 433.502918 156.652885 433.305795 157.12878 433.305795 157.62493 
C 433.305795 158.121079 433.502918 158.596975 433.853748 158.947805 
C 434.204579 159.298636 434.680475 159.495758 435.176624 159.495758 
z
" clip-path="url(#pfc9e387246)" style="fill: #1f77b4; fill-opacity: 0.5"/>
   </g>
   <g id="PathCollection_2">
    <path d="M 435.02879 111.285894 
C 435.524939 111.285894 436.000834 111.088772 436.351665 110.737941 
C 436.702496 110.38711 436.899618 109.911215 436.899618 109.415065 
C 436.899618 108.918916 436.702496 108.44302 436.351665 108.09219 
C 436.000834 107.741359 435.524939 107.544237 435.02879 107.544237 
C 434.53264 107.544237 434.056745 107.741359 433.705914 108.09219 
C 433.355083 108.44302 433.157961 108.918916 433.157961 109.415065 
C 433.157961 109.911215 433.355083 110.38711 433.705914 110.737941 
C 434.056745 111.088772 434.53264 111.285894 435.02879 111.285894 
z
" clip-path="url(#pfc9e387246)" style="fill: #1f77b4; fill-opacity: 0.5"/>
   </g>
   <g id="PathCollection_3">
    <path d="M 435.22554 -75.527331 
C 435.721689 -75.527331 436.197585 -75.724453 436.548415 -76.075284 
C 436.899246 -76.426114 437.096368 -76.90201 437.096368 -77.398159 
C 437.096368 -77.894309 436.899246 -78.370204 436.548415 -78.721035 
C 436.197585 -79.071866 435.721689 -79.268988 435.22554 -79.268988 
C 434.72939 -79.268988 434.253495 -79.071866 433.902664 -78.721035 
C 433.551833 -78.370204 433.354711 -77.894309 433.354711 -77.398159 
C 433.354711 -76.90201 433.551833 -76.426114 433.902664 -76.075284 
C 434.253495 -75.724453 434.72939 -75.527331 435.22554 -75.527331 
z
" clip-path="url(#pfc9e387246)" style="fill: #1f77b4; fill-opacity: 0.5"/>
   </g>
   <g id="PathCollection_4">
    <path d="M 288.386008 147.443292 
C 288.882157 147.443292 289.358053 147.24617 289.708883 146.895339 
C 290.059714 146.544509 290.256837 146.068613 290.256837 145.572464 
C 290.256837 145.076314 290.059714 144.600419 289.708883 144.249588 
C 289.358053 143.898757 288.882157 143.701635 288.386008 143.701635 
C 287.889858 143.701635 287.413963 143.898757 287.063132 144.249588 
C 286.712301 144.600419 286.515179 145.076314 286.515179 145.572464 
C 286.515179 146.068613 286.712301 146.544509 287.063132 146.895339 
C 287.413963 147.24617 287.889858 147.443292 288.386008 147.443292 
z
" clip-path="url(#pfc9e387246)" style="fill: #1f77b4; fill-opacity: 0.5"/>
   </g>
   <g id="PathCollection_5">
    <path d="M 288.068021 93.207195 
C 288.564171 93.207195 289.040066 93.010073 289.390897 92.659242 
C 289.741728 92.308411 289.93885 91.832516 289.93885 91.336366 
C 289.93885 90.840217 289.741728 90.364321 289.390897 90.013491 
C 289.040066 89.66266 288.564171 89.465537 288.068021 89.465537 
C 287.571872 89.465537 287.095976 89.66266 286.745146 90.013491 
C 286.394315 90.364321 286.197193 90.840217 286.197193 91.336366 
C 286.197193 91.832516 286.394315 92.308411 286.745146 92.659242 
C 287.095976 93.010073 287.571872 93.207195 288.068021 93.207195 
z
" clip-path="url(#pfc9e387246)" style="fill: #1f77b4; fill-opacity: 0.5"/>
   </g>
   <g id="PathCollection_6">
    <path d="M 288.139536 -81.553564 
C 288.635685 -81.553564 289.111581 -81.750686 289.462411 -82.101517 
C 289.813242 -82.452347 290.010364 -82.928243 290.010364 -83.424392 
C 290.010364 -83.920542 289.813242 -84.396437 289.462411 -84.747268 
C 289.111581 -85.098099 288.635685 -85.295221 288.139536 -85.295221 
C 287.643386 -85.295221 287.167491 -85.098099 286.81666 -84.747268 
C 286.465829 -84.396437 286.268707 -83.920542 286.268707 -83.424392 
C 286.268707 -82.928243 286.465829 -82.452347 286.81666 -82.101517 
C 287.167491 -81.750686 287.643386 -81.553564 288.139536 -81.553564 
z
" clip-path="url(#pfc9e387246)" style="fill: #1f77b4; fill-opacity: 0.5"/>
   </g>
   <g id="PathCollection_7">
    <path d="M 205.855926 177.574458 
C 206.352075 177.574458 206.82797 177.377335 207.178801 177.026505 
C 207.529632 176.675674 207.726754 176.199778 207.726754 175.703629 
C 207.726754 175.207479 207.529632 174.731584 207.178801 174.380753 
C 206.82797 174.029923 206.352075 173.8328 205.855926 173.8328 
C 205.359776 173.8328 204.883881 174.029923 204.53305 174.380753 
C 204.182219 174.731584 203.985097 175.207479 203.985097 175.703629 
C 203.985097 176.199778 204.182219 176.675674 204.53305 177.026505 
C 204.883881 177.377335 205.359776 177.574458 205.855926 177.574458 
z
" clip-path="url(#pfc9e387246)" style="fill: #1f77b4; fill-opacity: 0.5"/>
   </g>
   <g id="PathCollection_8">
    <path d="M 205.80713 75.128496 
C 206.30328 75.128496 206.779175 74.931373 207.130006 74.580543 
C 207.480837 74.229712 207.677959 73.753817 207.677959 73.257667 
C 207.677959 72.761517 207.480837 72.285622 207.130006 71.934791 
C 206.779175 71.583961 206.30328 71.386838 205.80713 71.386838 
C 205.310981 71.386838 204.835086 71.583961 204.484255 71.934791 
C 204.133424 72.285622 203.936302 72.761517 203.936302 73.257667 
C 203.936302 73.753817 204.133424 74.229712 204.484255 74.580543 
C 204.835086 74.931373 205.310981 75.128496 205.80713 75.128496 
z
" clip-path="url(#pfc9e387246)" style="fill: #1f77b4; fill-opacity: 0.5"/>
   </g>
   <g id="PathCollection_9">
    <path d="M 205.840037 -75.527331 
C 206.336187 -75.527331 206.812082 -75.724453 207.162913 -76.075284 
C 207.513744 -76.426114 207.710866 -76.90201 207.710866 -77.398159 
C 207.710866 -77.894309 207.513744 -78.370204 207.162913 -78.721035 
C 206.812082 -79.071866 206.336187 -79.268988 205.840037 -79.268988 
C 205.343888 -79.268988 204.867992 -79.071866 204.517162 -78.721035 
C 204.166331 -78.370204 203.969209 -77.894309 203.969209 -77.398159 
C 203.969209 -76.90201 204.166331 -76.426114 204.517162 -76.075284 
C 204.867992 -75.724453 205.343888 -75.527331 205.840037 -75.527331 
z
" clip-path="url(#pfc9e387246)" style="fill: #1f77b4; fill-opacity: 0.5"/>
   </g>
   <g id="PathCollection_10">
    <path d="M 167.835285 177.574458 
C 168.331434 177.574458 168.80733 177.377335 169.15816 177.026505 
C 169.508991 176.675674 169.706113 176.199778 169.706113 175.703629 
C 169.706113 175.207479 169.508991 174.731584 169.15816 174.380753 
C 168.80733 174.029923 168.331434 173.8328 167.835285 173.8328 
C 167.339135 173.8328 166.86324 174.029923 166.512409 174.380753 
C 166.161578 174.731584 165.964456 175.207479 165.964456 175.703629 
C 165.964456 176.199778 166.161578 176.675674 166.512409 177.026505 
C 166.86324 177.377335 167.339135 177.574458 167.835285 177.574458 
z
" clip-path="url(#pfc9e387246)" style="fill: #1f77b4; fill-opacity: 0.5"/>
   </g>
   <g id="PathCollection_11">
    <path d="M 168.025602 75.128496 
C 168.521751 75.128496 168.997647 74.931373 169.348478 74.580543 
C 169.699308 74.229712 169.896431 73.753817 169.896431 73.257667 
C 169.896431 72.761517 169.699308 72.285622 169.348478 71.934791 
C 168.997647 71.583961 168.521751 71.386838 168.025602 71.386838 
C 167.529452 71.386838 167.053557 71.583961 166.702726 71.934791 
C 166.351896 72.285622 166.154773 72.761517 166.154773 73.257667 
C 166.154773 73.753817 166.351896 74.229712 166.702726 74.580543 
C 167.053557 74.931373 167.529452 75.128496 168.025602 75.128496 
z
" clip-path="url(#pfc9e387246)" style="fill: #1f77b4; fill-opacity: 0.5"/>
   </g>
   <g id="PathCollection_12">
    <path d="M 168.014458 -45.396165 
C 168.510608 -45.396165 168.986503 -45.593288 169.337334 -45.944118 
C 169.688165 -46.294949 169.885287 -46.770844 169.885287 -47.266994 
C 169.885287 -47.763144 169.688165 -48.239039 169.337334 -48.58987 
C 168.986503 -48.9407 168.510608 -49.137823 168.014458 -49.137823 
C 167.518309 -49.137823 167.042413 -48.9407 166.691583 -48.58987 
C 166.340752 -48.239039 166.143629 -47.763144 166.143629 -47.266994 
C 166.143629 -46.770844 166.340752 -46.294949 166.691583 -45.944118 
C 167.042413 -45.593288 167.518309 -45.396165 168.014458 -45.396165 
z
" clip-path="url(#pfc9e387246)" style="fill: #1f77b4; fill-opacity: 0.5"/>
   </g>
   <g id="PathCollection_13">
    <path d="M 133.267794 219.758089 
C 133.763943 219.758089 134.239839 219.560967 134.59067 219.210136 
C 134.9415 218.859305 135.138623 218.38341 135.138623 217.88726 
C 135.138623 217.391111 134.9415 216.915215 134.59067 216.564385 
C 134.239839 216.213554 133.763943 216.016432 133.267794 216.016432 
C 132.771644 216.016432 132.295749 216.213554 131.944918 216.564385 
C 131.594088 216.915215 131.396965 217.391111 131.396965 217.88726 
C 131.396965 218.38341 131.594088 218.859305 131.944918 219.210136 
C 132.295749 219.560967 132.771644 219.758089 133.267794 219.758089 
z
" clip-path="url(#pfc9e387246)" style="fill: #1f77b4; fill-opacity: 0.5"/>
   </g>
   <g id="PathCollection_14">
    <path d="M 133.384237 123.33836 
C 133.880387 123.33836 134.356282 123.141238 134.707113 122.790407 
C 135.057943 122.439576 135.255066 121.963681 135.255066 121.467531 
C 135.255066 120.971382 135.057943 120.495486 134.707113 120.144656 
C 134.356282 119.793825 133.880387 119.596703 133.384237 119.596703 
C 132.888088 119.596703 132.412192 119.793825 132.061361 120.144656 
C 131.710531 120.495486 131.513408 120.971382 131.513408 121.467531 
C 131.513408 121.963681 131.710531 122.439576 132.061361 122.790407 
C 132.412192 123.141238 132.888088 123.33836 133.384237 123.33836 
z
" clip-path="url(#pfc9e387246)" style="fill: #1f77b4; fill-opacity: 0.5"/>
   </g>
   <g id="PathCollection_15">
    <path d="M 133.311876 -27.317466 
C 133.808025 -27.317466 134.283921 -27.514588 134.634752 -27.865419 
C 134.985582 -28.21625 135.182705 -28.692145 135.182705 -29.188295 
C 135.182705 -29.684444 134.985582 -30.16034 134.634752 -30.511171 
C 134.283921 -30.862001 133.808025 -31.059124 133.311876 -31.059124 
C 132.815726 -31.059124 132.339831 -30.862001 131.989 -30.511171 
C 131.63817 -30.16034 131.441047 -29.684444 131.441047 -29.188295 
C 131.441047 -28.692145 131.63817 -28.21625 131.989 -27.865419 
C 132.339831 -27.514588 132.815726 -27.317466 133.311876 -27.317466 
z
" clip-path="url(#pfc9e387246)" style="fill: #1f77b4; fill-opacity: 0.5"/>
   </g>
   <g id="PathCollection_16">
    <path d="M 113.015584 177.574458 
C 113.511733 177.574458 113.987629 177.377335 114.338459 177.026505 
C 114.68929 176.675674 114.886412 176.199778 114.886412 175.703629 
C 114.886412 175.207479 114.68929 174.731584 114.338459 174.380753 
C 113.987629 174.029923 113.511733 173.8328 113.015584 173.8328 
C 112.519434 173.8328 112.043539 174.029923 111.692708 174.380753 
C 111.341877 174.731584 111.144755 175.207479 111.144755 175.703629 
C 111.144755 176.199778 111.341877 176.675674 111.692708 177.026505 
C 112.043539 177.377335 112.519434 177.574458 113.015584 177.574458 
z
" clip-path="url(#pfc9e387246)" style="fill: #1f77b4; fill-opacity: 0.5"/>
   </g>
   <g id="PathCollection_17">
    <path d="M 113.15056 99.233428 
C 113.64671 99.233428 114.122605 99.036306 114.473436 98.685475 
C 114.824266 98.334644 115.021389 97.858749 115.021389 97.362599 
C 115.021389 96.86645 114.824266 96.390554 114.473436 96.039724 
C 114.122605 95.688893 113.64671 95.491771 113.15056 95.491771 
C 112.65441 95.491771 112.178515 95.688893 111.827684 96.039724 
C 111.476854 96.390554 111.279731 96.86645 111.279731 97.362599 
C 111.279731 97.858749 111.476854 98.334644 111.827684 98.685475 
C 112.178515 99.036306 112.65441 99.233428 113.15056 99.233428 
z
" clip-path="url(#pfc9e387246)" style="fill: #1f77b4; fill-opacity: 0.5"/>
   </g>
   <g id="PathCollection_18">
    <path d="M 113.004623 32.944864 
C 113.500773 32.944864 113.976668 32.747742 114.327499 32.396911 
C 114.678329 32.046081 114.875452 31.570185 114.875452 31.074036 
C 114.875452 30.577886 114.678329 30.101991 114.327499 29.75116 
C 113.976668 29.400329 113.500773 29.203207 113.004623 29.203207 
C 112.508474 29.203207 112.032578 29.400329 111.681747 29.75116 
C 111.330917 30.101991 111.133794 30.577886 111.133794 31.074036 
C 111.133794 31.570185 111.330917 32.046081 111.681747 32.396911 
C 112.032578 32.747742 112.508474 32.944864 113.004623 32.944864 
z
" clip-path="url(#pfc9e387246)" style="fill: #1f77b4; fill-opacity: 0.5"/>
   </g>
   <g id="PathCollection_19">
    <path d="M 87.53866 147.443292 
C 88.034809 147.443292 88.510705 147.24617 88.861535 146.895339 
C 89.212366 146.544509 89.409488 146.068613 89.409488 145.572464 
C 89.409488 145.076314 89.212366 144.600419 88.861535 144.249588 
C 88.510705 143.898757 88.034809 143.701635 87.53866 143.701635 
C 87.04251 143.701635 86.566615 143.898757 86.215784 144.249588 
C 85.864953 144.600419 85.667831 145.076314 85.667831 145.572464 
C 85.667831 146.068613 85.864953 146.544509 86.215784 146.895339 
C 86.566615 147.24617 87.04251 147.443292 87.53866 147.443292 
z
" clip-path="url(#pfc9e387246)" style="fill: #1f77b4; fill-opacity: 0.5"/>
   </g>
   <g id="PathCollection_20">
    <path d="M 87.436755 243.863021 
C 87.932905 243.863021 88.4088 243.665899 88.759631 243.315068 
C 89.110461 242.964237 89.307584 242.488342 89.307584 241.992192 
C 89.307584 241.496043 89.110461 241.020148 88.759631 240.669317 
C 88.4088 240.318486 87.932905 240.121364 87.436755 240.121364 
C 86.940605 240.121364 86.46471 240.318486 86.113879 240.669317 
C 85.763049 241.020148 85.565926 241.496043 85.565926 241.992192 
C 85.565926 242.488342 85.763049 242.964237 86.113879 243.315068 
C 86.46471 243.665899 86.940605 243.863021 87.436755 243.863021 
z
" clip-path="url(#pfc9e387246)" style="fill: #1f77b4; fill-opacity: 0.5"/>
   </g>
   <g id="PathCollection_21">
    <path d="M 87.421928 32.944864 
C 87.918077 32.944864 88.393973 32.747742 88.744803 32.396911 
C 89.095634 32.046081 89.292756 31.570185 89.292756 31.074036 
C 89.292756 30.577886 89.095634 30.101991 88.744803 29.75116 
C 88.393973 29.400329 87.918077 29.203207 87.421928 29.203207 
C 86.925778 29.203207 86.449883 29.400329 86.099052 29.75116 
C 85.748221 30.101991 85.551099 30.577886 85.551099 31.074036 
C 85.551099 31.570185 85.748221 32.046081 86.099052 32.396911 
C 86.449883 32.747742 86.925778 32.944864 87.421928 32.944864 
z
" clip-path="url(#pfc9e387246)" style="fill: #1f77b4; fill-opacity: 0.5"/>
   </g>
   <g id="PathCollection_22">
    <path d="M 70.280085 111.285894 
C 70.776235 111.285894 71.25213 111.088772 71.602961 110.737941 
C 71.953792 110.38711 72.150914 109.911215 72.150914 109.415065 
C 72.150914 108.918916 71.953792 108.44302 71.602961 108.09219 
C 71.25213 107.741359 70.776235 107.544237 70.280085 107.544237 
C 69.783936 107.544237 69.30804 107.741359 68.95721 108.09219 
C 68.606379 108.44302 68.409257 108.918916 68.409257 109.415065 
C 68.409257 109.911215 68.606379 110.38711 68.95721 110.737941 
C 69.30804 111.088772 69.783936 111.285894 70.280085 111.285894 
z
" clip-path="url(#pfc9e387246)" style="fill: #1f77b4; fill-opacity: 0.5"/>
   </g>
   <g id="PathCollection_23">
    <path d="M 70.489083 261.94172 
C 70.985233 261.94172 71.461128 261.744598 71.811959 261.393767 
C 72.16279 261.042937 72.359912 260.567041 72.359912 260.070892 
C 72.359912 259.574742 72.16279 259.098847 71.811959 258.748016 
C 71.461128 258.397185 70.985233 258.200063 70.489083 258.200063 
C 69.992934 258.200063 69.517038 258.397185 69.166207 258.748016 
C 68.815377 259.098847 68.618254 259.574742 68.618254 260.070892 
C 68.618254 260.567041 68.815377 261.042937 69.166207 261.393767 
C 69.517038 261.744598 69.992934 261.94172 70.489083 261.94172 
z
" clip-path="url(#pfc9e387246)" style="fill: #1f77b4; fill-opacity: 0.5"/>
   </g>
   <g id="PathCollection_24">
    <path d="M 70.337963 141.417059 
C 70.834112 141.417059 71.310008 141.219937 71.660838 140.869106 
C 72.011669 140.518276 72.208791 140.04238 72.208791 139.546231 
C 72.208791 139.050081 72.011669 138.574186 71.660838 138.223355 
C 71.310008 137.872524 70.834112 137.675402 70.337963 137.675402 
C 69.841813 137.675402 69.365918 137.872524 69.015087 138.223355 
C 68.664256 138.574186 68.467134 139.050081 68.467134 139.546231 
C 68.467134 140.04238 68.664256 140.518276 69.015087 140.869106 
C 69.365918 141.219937 69.841813 141.417059 70.337963 141.417059 
z
" clip-path="url(#pfc9e387246)" style="fill: #1f77b4; fill-opacity: 0.5"/>
   </g>
   <g id="patch_3">
    <path d="M 52.032813 199.306375 
L 52.032813 21.5325 
" style="fill: none; stroke: #000000; stroke-width: 0.8; stroke-linejoin: miter; stroke-linecap: square"/>
   </g>
   <g id="patch_4">
    <path d="M 453.472812 199.306375 
L 453.472812 21.5325 
" style="fill: none; stroke: #000000; stroke-width: 0.8; stroke-linejoin: miter; stroke-linecap: square"/>
   </g>
   <g id="patch_5">
    <path d="M 52.032813 199.306375 
L 453.472812 199.306375 
" style="fill: none; stroke: #000000; stroke-width: 0.8; stroke-linejoin: miter; stroke-linecap: square"/>
   </g>
   <g id="patch_6">
    <path d="M 52.032813 21.5325 
L 453.472812 21.5325 
" style="fill: none; stroke: #000000; stroke-width: 0.8; stroke-linejoin: miter; stroke-linecap: square"/>
   </g>
   <g id="LineCollection_1">
    <path d="M 70.354942 237.507937 
L 70.354942 89.957826 
" clip-path="url(#pfc9e387246)" style="fill: none; stroke: #000000; stroke-width: 0.9"/>
    <path d="M 87.44224 237.507937 
L 87.44224 33.958098 
" clip-path="url(#pfc9e387246)" style="fill: none; stroke: #000000; stroke-width: 0.9"/>
    <path d="M 113.110065 173.778534 
L 113.110065 28.981642 
" clip-path="url(#pfc9e387246)" style="fill: none; stroke: #000000; stroke-width: 0.9"/>
    <path d="M 133.26054 227.914781 
L 133.26054 -1 
" clip-path="url(#pfc9e387246)" style="fill: none; stroke: #000000; stroke-width: 0.9"/>
    <path d="M 167.929078 178.838832 
L 167.929078 -1 
" clip-path="url(#pfc9e387246)" style="fill: none; stroke: #000000; stroke-width: 0.9"/>
    <path d="M 205.841883 184.501542 
L 205.841883 -1 
" clip-path="url(#pfc9e387246)" style="fill: none; stroke: #000000; stroke-width: 0.9"/>
    <path d="M 288.282777 170.829379 
L 288.282777 -1 
" clip-path="url(#pfc9e387246)" style="fill: none; stroke: #000000; stroke-width: 0.9"/>
    <path d="M 435.143159 187.350446 
L 435.143159 -1 
" clip-path="url(#pfc9e387246)" style="fill: none; stroke: #000000; stroke-width: 0.9"/>
   </g>
   <g id="line2d_18">
    <defs>
     <path id="m81f7c8ae09" d="M 3 0 
L -3 -0 
" style="stroke: #000000"/>
    </defs>
    <g clip-path="url(#pfc9e387246)">
     <use xlink:href="#m81f7c8ae09" x="70.354942" y="249.396966" style="stroke: #000000"/>
     <use xlink:href="#m81f7c8ae09" x="87.44224" y="245.134364" style="stroke: #000000"/>
     <use xlink:href="#m81f7c8ae09" x="113.110065" y="173.778534" style="stroke: #000000"/>
     <use xlink:href="#m81f7c8ae09" x="133.26054" y="227.914781" style="stroke: #000000"/>
     <use xlink:href="#m81f7c8ae09" x="167.929078" y="178.838832" style="stroke: #000000"/>
     <use xlink:href="#m81f7c8ae09" x="205.841883" y="184.501542" style="stroke: #000000"/>
     <use xlink:href="#m81f7c8ae09" x="288.282777" y="170.829379" style="stroke: #000000"/>
     <use xlink:href="#m81f7c8ae09" x="435.143159" y="187.350446" style="stroke: #000000"/>
    </g>
   </g>
   <g id="line2d_19">
    <g clip-path="url(#pfc9e387246)">
     <use xlink:href="#m81f7c8ae09" x="70.354942" y="89.957826" style="stroke: #000000"/>
     <use xlink:href="#m81f7c8ae09" x="87.44224" y="33.958098" style="stroke: #000000"/>
     <use xlink:href="#m81f7c8ae09" x="113.110065" y="28.981642" style="stroke: #000000"/>
     <use xlink:href="#m81f7c8ae09" x="125.164321" y="-1" style="stroke: #000000"/>
    </g>
   </g>
   <g id="text_11">
    <!-- DP-SGD: Privacy–Utility Curve (Minimal) -->
    <g transform="translate(148.594687 15.5325) scale(0.12 -0.12)">
     <defs>
      <path id="TimesNewRomanPSMT-44" d="M 109 0 
L 109 116 
L 269 116 
Q 538 116 650 288 
Q 719 391 719 750 
L 719 3488 
Q 719 3884 631 3984 
Q 509 4122 269 4122 
L 109 4122 
L 109 4238 
L 1834 4238 
Q 2784 4238 3279 4022 
Q 3775 3806 4076 3303 
Q 4378 2800 4378 2141 
Q 4378 1256 3841 663 
Q 3238 0 2003 0 
L 109 0 
z
M 1319 306 
Q 1716 219 1984 219 
Q 2709 219 3187 728 
Q 3666 1238 3666 2109 
Q 3666 2988 3187 3494 
Q 2709 4000 1959 4000 
Q 1678 4000 1319 3909 
L 1319 306 
z
" transform="scale(0.015625)"/>
      <path id="TimesNewRomanPSMT-50" d="M 1313 1984 
L 1313 750 
Q 1313 350 1400 253 
Q 1519 116 1759 116 
L 1922 116 
L 1922 0 
L 106 0 
L 106 116 
L 266 116 
Q 534 116 650 291 
Q 713 388 713 750 
L 713 3488 
Q 713 3888 628 3984 
Q 506 4122 266 4122 
L 106 4122 
L 106 4238 
L 1659 4238 
Q 2228 4238 2556 4120 
Q 2884 4003 3109 3725 
Q 3334 3447 3334 3066 
Q 3334 2547 2992 2222 
Q 2650 1897 2025 1897 
Q 1872 1897 1694 1919 
Q 1516 1941 1313 1984 
z
M 1313 2163 
Q 1478 2131 1606 2115 
Q 1734 2100 1825 2100 
Q 2150 2100 2386 2351 
Q 2622 2603 2622 3003 
Q 2622 3278 2509 3514 
Q 2397 3750 2190 3867 
Q 1984 3984 1722 3984 
Q 1563 3984 1313 3925 
L 1313 2163 
z
" transform="scale(0.015625)"/>
      <path id="TimesNewRomanPSMT-2d" d="M 259 1672 
L 1875 1672 
L 1875 1200 
L 259 1200 
L 259 1672 
z
" transform="scale(0.015625)"/>
      <path id="TimesNewRomanPSMT-53" d="M 2934 4334 
L 2934 2869 
L 2819 2869 
Q 2763 3291 2617 3541 
Q 2472 3791 2203 3937 
Q 1934 4084 1647 4084 
Q 1322 4084 1109 3886 
Q 897 3688 897 3434 
Q 897 3241 1031 3081 
Q 1225 2847 1953 2456 
Q 2547 2138 2764 1967 
Q 2981 1797 3098 1565 
Q 3216 1334 3216 1081 
Q 3216 600 2842 251 
Q 2469 -97 1881 -97 
Q 1697 -97 1534 -69 
Q 1438 -53 1133 45 
Q 828 144 747 144 
Q 669 144 623 97 
Q 578 50 556 -97 
L 441 -97 
L 441 1356 
L 556 1356 
Q 638 900 775 673 
Q 913 447 1195 297 
Q 1478 147 1816 147 
Q 2206 147 2432 353 
Q 2659 559 2659 841 
Q 2659 997 2573 1156 
Q 2488 1316 2306 1453 
Q 2184 1547 1640 1851 
Q 1097 2156 867 2337 
Q 638 2519 519 2737 
Q 400 2956 400 3219 
Q 400 3675 750 4004 
Q 1100 4334 1641 4334 
Q 1978 4334 2356 4169 
Q 2531 4091 2603 4091 
Q 2684 4091 2736 4139 
Q 2788 4188 2819 4334 
L 2934 4334 
z
" transform="scale(0.015625)"/>
      <path id="TimesNewRomanPSMT-47" d="M 3928 4334 
L 4038 2997 
L 3928 2997 
Q 3763 3497 3500 3750 
Q 3122 4116 2528 4116 
Q 1719 4116 1297 3475 
Q 944 2934 944 2188 
Q 944 1581 1178 1081 
Q 1413 581 1792 348 
Q 2172 116 2572 116 
Q 2806 116 3025 175 
Q 3244 234 3447 350 
L 3447 1575 
Q 3447 1894 3398 1992 
Q 3350 2091 3248 2142 
Q 3147 2194 2891 2194 
L 2891 2313 
L 4531 2313 
L 4531 2194 
L 4453 2194 
Q 4209 2194 4119 2031 
Q 4056 1916 4056 1575 
L 4056 278 
Q 3697 84 3347 -6 
Q 2997 -97 2569 -97 
Q 1341 -97 703 691 
Q 225 1281 225 2053 
Q 225 2613 494 3125 
Q 813 3734 1369 4063 
Q 1834 4334 2469 4334 
Q 2700 4334 2889 4296 
Q 3078 4259 3425 4131 
Q 3600 4066 3659 4066 
Q 3719 4066 3761 4120 
Q 3803 4175 3813 4334 
L 3928 4334 
z
" transform="scale(0.015625)"/>
      <path id="TimesNewRomanPSMT-3a" d="M 903 2950 
Q 1047 2950 1148 2848 
Q 1250 2747 1250 2603 
Q 1250 2459 1148 2357 
Q 1047 2256 903 2256 
Q 759 2256 657 2357 
Q 556 2459 556 2603 
Q 556 2747 657 2848 
Q 759 2950 903 2950 
z
M 897 609 
Q 1044 609 1145 506 
Q 1247 403 1247 259 
Q 1247 116 1144 14 
Q 1041 -88 897 -88 
Q 753 -88 651 14 
Q 550 116 550 259 
Q 550 403 651 506 
Q 753 609 897 609 
z
" transform="scale(0.015625)"/>
      <path id="TimesNewRomanPSMT-76" d="M 53 2863 
L 1400 2863 
L 1400 2747 
L 1313 2747 
Q 1191 2747 1127 2687 
Q 1063 2628 1063 2528 
Q 1063 2419 1128 2269 
L 1794 688 
L 2463 2328 
Q 2534 2503 2534 2594 
Q 2534 2638 2509 2666 
Q 2475 2713 2422 2730 
Q 2369 2747 2206 2747 
L 2206 2863 
L 3141 2863 
L 3141 2747 
Q 2978 2734 2916 2681 
Q 2806 2588 2719 2369 
L 1703 -88 
L 1575 -88 
L 553 2328 
Q 484 2497 421 2570 
Q 359 2644 263 2694 
Q 209 2722 53 2747 
L 53 2863 
z
" transform="scale(0.015625)"/>
      <path id="TimesNewRomanPSMT-2013" d="M 3253 1416 
L -56 1416 
L -56 1644 
L 3253 1644 
L 3253 1416 
z
" transform="scale(0.015625)"/>
      <path id="TimesNewRomanPSMT-55" d="M 3053 4122 
L 3053 4238 
L 4553 4238 
L 4553 4122 
L 4394 4122 
Q 4144 4122 4009 3913 
Q 3944 3816 3944 3463 
L 3944 1744 
Q 3944 1106 3817 754 
Q 3691 403 3320 151 
Q 2950 -100 2313 -100 
Q 1619 -100 1259 140 
Q 900 381 750 788 
Q 650 1066 650 1831 
L 650 3488 
Q 650 3878 542 4000 
Q 434 4122 194 4122 
L 34 4122 
L 34 4238 
L 1866 4238 
L 1866 4122 
L 1703 4122 
Q 1441 4122 1328 3956 
Q 1250 3844 1250 3488 
L 1250 1641 
Q 1250 1394 1295 1075 
Q 1341 756 1459 578 
Q 1578 400 1801 284 
Q 2025 169 2350 169 
Q 2766 169 3094 350 
Q 3422 531 3542 814 
Q 3663 1097 3663 1772 
L 3663 3488 
Q 3663 3884 3575 3984 
Q 3453 4122 3213 4122 
L 3053 4122 
z
" transform="scale(0.015625)"/>
      <path id="TimesNewRomanPSMT-43" d="M 3853 4334 
L 3950 2894 
L 3853 2894 
Q 3659 3541 3300 3825 
Q 2941 4109 2438 4109 
Q 2016 4109 1675 3895 
Q 1334 3681 1139 3212 
Q 944 2744 944 2047 
Q 944 1472 1128 1050 
Q 1313 628 1683 403 
Q 2053 178 2528 178 
Q 2941 178 3256 354 
Q 3572 531 3950 1056 
L 4047 994 
Q 3728 428 3303 165 
Q 2878 -97 2294 -97 
Q 1241 -97 663 684 
Q 231 1266 231 2053 
Q 231 2688 515 3219 
Q 800 3750 1298 4042 
Q 1797 4334 2388 4334 
Q 2847 4334 3294 4109 
Q 3425 4041 3481 4041 
Q 3566 4041 3628 4100 
Q 3709 4184 3744 4334 
L 3853 4334 
z
" transform="scale(0.015625)"/>
      <path id="TimesNewRomanPSMT-4d" d="M 2619 0 
L 981 3566 
L 981 734 
Q 981 344 1066 247 
Q 1181 116 1431 116 
L 1581 116 
L 1581 0 
L 106 0 
L 106 116 
L 256 116 
Q 525 116 638 278 
Q 706 378 706 734 
L 706 3503 
Q 706 3784 644 3909 
Q 600 4000 483 4061 
Q 366 4122 106 4122 
L 106 4238 
L 1306 4238 
L 2844 922 
L 4356 4238 
L 5556 4238 
L 5556 4122 
L 5409 4122 
Q 5138 4122 5025 3959 
Q 4956 3859 4956 3503 
L 4956 734 
Q 4956 344 5044 247 
Q 5159 116 5409 116 
L 5556 116 
L 5556 0 
L 3756 0 
L 3756 116 
L 3906 116 
Q 4178 116 4288 278 
Q 4356 378 4356 734 
L 4356 3566 
L 2722 0 
L 2619 0 
z
" transform="scale(0.015625)"/>
      <path id="TimesNewRomanPSMT-6d" d="M 1050 2338 
Q 1363 2650 1419 2697 
Q 1559 2816 1721 2881 
Q 1884 2947 2044 2947 
Q 2313 2947 2506 2790 
Q 2700 2634 2766 2338 
Q 3088 2713 3309 2830 
Q 3531 2947 3766 2947 
Q 3994 2947 4170 2830 
Q 4347 2713 4450 2447 
Q 4519 2266 4519 1878 
L 4519 647 
Q 4519 378 4559 278 
Q 4591 209 4675 161 
Q 4759 113 4950 113 
L 4950 0 
L 3538 0 
L 3538 113 
L 3597 113 
Q 3781 113 3884 184 
Q 3956 234 3988 344 
Q 4000 397 4000 647 
L 4000 1878 
Q 4000 2228 3916 2372 
Q 3794 2572 3525 2572 
Q 3359 2572 3192 2489 
Q 3025 2406 2788 2181 
L 2781 2147 
L 2788 2013 
L 2788 647 
Q 2788 353 2820 281 
Q 2853 209 2943 161 
Q 3034 113 3253 113 
L 3253 0 
L 1806 0 
L 1806 113 
Q 2044 113 2133 169 
Q 2222 225 2256 338 
Q 2272 391 2272 647 
L 2272 1878 
Q 2272 2228 2169 2381 
Q 2031 2581 1784 2581 
Q 1616 2581 1450 2491 
Q 1191 2353 1050 2181 
L 1050 647 
Q 1050 366 1089 281 
Q 1128 197 1204 155 
Q 1281 113 1516 113 
L 1516 0 
L 100 0 
L 100 113 
Q 297 113 375 155 
Q 453 197 493 289 
Q 534 381 534 647 
L 534 1741 
Q 534 2213 506 2350 
Q 484 2453 437 2492 
Q 391 2531 309 2531 
Q 222 2531 100 2484 
L 53 2597 
L 916 2947 
L 1050 2947 
L 1050 2338 
z
" transform="scale(0.015625)"/>
     </defs>
     <use xlink:href="#TimesNewRomanPSMT-44"/>
     <use xlink:href="#TimesNewRomanPSMT-50" transform="translate(72.216797 0)"/>
     <use xlink:href="#TimesNewRomanPSMT-2d" transform="translate(127.832031 0)"/>
     <use xlink:href="#TimesNewRomanPSMT-53" transform="translate(161.132812 0)"/>
     <use xlink:href="#TimesNewRomanPSMT-47" transform="translate(216.748047 0)"/>
     <use xlink:href="#TimesNewRomanPSMT-44" transform="translate(288.964844 0)"/>
     <use xlink:href="#TimesNewRomanPSMT-3a" transform="translate(361.181641 0)"/>
     <use xlink:href="#TimesNewRomanPSMT-20" transform="translate(388.964844 0)"/>
     <use xlink:href="#TimesNewRomanPSMT-50" transform="translate(413.964844 0)"/>
     <use xlink:href="#TimesNewRomanPSMT-72" transform="translate(469.580078 0)"/>
     <use xlink:href="#TimesNewRomanPSMT-69" transform="translate(502.880859 0)"/>
     <use xlink:href="#TimesNewRomanPSMT-76" transform="translate(530.664062 0)"/>
     <use xlink:href="#TimesNewRomanPSMT-61" transform="translate(580.664062 0)"/>
     <use xlink:href="#TimesNewRomanPSMT-63" transform="translate(625.048828 0)"/>
     <use xlink:href="#TimesNewRomanPSMT-79" transform="translate(669.433594 0)"/>
     <use xlink:href="#TimesNewRomanPSMT-2013" transform="translate(719.433594 0)"/>
     <use xlink:href="#TimesNewRomanPSMT-55" transform="translate(769.433594 0)"/>
     <use xlink:href="#TimesNewRomanPSMT-74" transform="translate(841.650391 0)"/>
     <use xlink:href="#TimesNewRomanPSMT-69" transform="translate(869.433594 0)"/>
     <use xlink:href="#TimesNewRomanPSMT-6c" transform="translate(897.216797 0)"/>
     <use xlink:href="#TimesNewRomanPSMT-69" transform="translate(925 0)"/>
     <use xlink:href="#TimesNewRomanPSMT-74" transform="translate(952.783203 0)"/>
     <use xlink:href="#TimesNewRomanPSMT-79" transform="translate(980.566406 0)"/>
     <use xlink:href="#TimesNewRomanPSMT-20" transform="translate(1030.566406 0)"/>
     <use xlink:href="#TimesNewRomanPSMT-43" transform="translate(1055.566406 0)"/>
     <use xlink:href="#TimesNewRomanPSMT-75" transform="translate(1122.265625 0)"/>
     <use xlink:href="#TimesNewRomanPSMT-72" transform="translate(1172.265625 0)"/>
     <use xlink:href="#TimesNewRomanPSMT-76" transform="translate(1205.566406 0)"/>
     <use xlink:href="#TimesNewRomanPSMT-65" transform="translate(1255.566406 0)"/>
     <use xlink:href="#TimesNewRomanPSMT-20" transform="translate(1299.951172 0)"/>
     <use xlink:href="#TimesNewRomanPSMT-28" transform="translate(1324.951172 0)"/>
     <use xlink:href="#TimesNewRomanPSMT-4d" transform="translate(1358.251953 0)"/>
     <use xlink:href="#TimesNewRomanPSMT-69" transform="translate(1447.167969 0)"/>
     <use xlink:href="#TimesNewRomanPSMT-6e" transform="translate(1474.951172 0)"/>
     <use xlink:href="#TimesNewRomanPSMT-69" transform="translate(1524.951172 0)"/>
     <use xlink:href="#TimesNewRomanPSMT-6d" transform="translate(1552.734375 0)"/>
     <use xlink:href="#TimesNewRomanPSMT-61" transform="translate(1630.517578 0)"/>
     <use xlink:href="#TimesNewRomanPSMT-6c" transform="translate(1674.902344 0)"/>
     <use xlink:href="#TimesNewRomanPSMT-29" transform="translate(1702.685547 0)"/>
    </g>
   </g>
   <g id="line2d_20">
    <path d="M 70.354942 169.677396 
L 87.44224 139.546231 
L 113.110065 101.380088 
L 133.26054 103.388832 
L 167.929078 67.231434 
L 205.841883 57.187712 
L 288.282777 51.161479 
L 435.143159 63.213945 
" clip-path="url(#pfc9e387246)" style="fill: none; stroke: #000000; stroke-width: 1.3; stroke-linecap: square"/>
    <defs>
     <path id="m777b285e8d" d="M 0 3 
C 0.795609 3 1.55874 2.683901 2.12132 2.12132 
C 2.683901 1.55874 3 0.795609 3 0 
C 3 -0.795609 2.683901 -1.55874 2.12132 -2.12132 
C 1.55874 -2.683901 0.795609 -3 0 -3 
C -0.795609 -3 -1.55874 -2.683901 -2.12132 -2.12132 
C -2.683901 -1.55874 -3 -0.795609 -3 0 
C -3 0.795609 -2.683901 1.55874 -2.12132 2.12132 
C -1.55874 2.683901 -0.795609 3 0 3 
z
" style="stroke: #000000"/>
    </defs>
    <g clip-path="url(#pfc9e387246)">
     <use xlink:href="#m777b285e8d" x="70.354942" y="169.677396" style="fill: #1f77b4; stroke: #000000"/>
     <use xlink:href="#m777b285e8d" x="87.44224" y="139.546231" style="fill: #1f77b4; stroke: #000000"/>
     <use xlink:href="#m777b285e8d" x="113.110065" y="101.380088" style="fill: #1f77b4; stroke: #000000"/>
     <use xlink:href="#m777b285e8d" x="133.26054" y="103.388832" style="fill: #1f77b4; stroke: #000000"/>
     <use xlink:href="#m777b285e8d" x="167.929078" y="67.231434" style="fill: #1f77b4; stroke: #000000"/>
     <use xlink:href="#m777b285e8d" x="205.841883" y="57.187712" style="fill: #1f77b4; stroke: #000000"/>
     <use xlink:href="#m777b285e8d" x="288.282777" y="51.161479" style="fill: #1f77b4; stroke: #000000"/>
     <use xlink:href="#m777b285e8d" x="435.143159" y="63.213945" style="fill: #1f77b4; stroke: #000000"/>
    </g>
   </g>
   <g id="legend_1">
    <g id="patch_7">
     <path d="M 341.778594 54.182812 
L 447.172812 54.182812 
Q 448.972812 54.182812 448.972812 52.382812 
L 448.972812 27.8325 
Q 448.972812 26.0325 447.172812 26.0325 
L 341.778594 26.0325 
Q 339.978594 26.0325 339.978594 27.8325 
L 339.978594 52.382812 
Q 339.978594 54.182812 341.778594 54.182812 
z
" style="fill: #ffffff; opacity: 0.8; stroke: #808080; stroke-width: 0.6; stroke-linejoin: miter"/>
    </g>
    <g id="line2d_21">
     <path d="M 343.578594 32.7825 
L 352.578594 32.7825 
L 361.578594 32.7825 
" style="fill: none; stroke-dasharray: 3.7,1.6; stroke-dashoffset: 0; stroke: #595959"/>
    </g>
    <g id="text_12">
     <!-- Baseline (0.9244) -->
     <g transform="translate(368.778594 35.9325) scale(0.09 -0.09)">
      <defs>
       <path id="TimesNewRomanPSMT-42" d="M 2956 2163 
Q 3397 2069 3616 1863 
Q 3919 1575 3919 1159 
Q 3919 844 3719 555 
Q 3519 266 3170 133 
Q 2822 0 2106 0 
L 106 0 
L 106 116 
L 266 116 
Q 531 116 647 284 
Q 719 394 719 750 
L 719 3488 
Q 719 3881 628 3984 
Q 506 4122 266 4122 
L 106 4122 
L 106 4238 
L 1938 4238 
Q 2450 4238 2759 4163 
Q 3228 4050 3475 3764 
Q 3722 3478 3722 3106 
Q 3722 2788 3528 2536 
Q 3334 2284 2956 2163 
z
M 1319 2331 
Q 1434 2309 1582 2298 
Q 1731 2288 1909 2288 
Q 2366 2288 2595 2386 
Q 2825 2484 2947 2687 
Q 3069 2891 3069 3131 
Q 3069 3503 2766 3765 
Q 2463 4028 1881 4028 
Q 1569 4028 1319 3959 
L 1319 2331 
z
M 1319 306 
Q 1681 222 2034 222 
Q 2600 222 2897 476 
Q 3194 731 3194 1106 
Q 3194 1353 3059 1581 
Q 2925 1809 2622 1940 
Q 2319 2072 1872 2072 
Q 1678 2072 1540 2065 
Q 1403 2059 1319 2044 
L 1319 306 
z
" transform="scale(0.015625)"/>
      </defs>
      <use xlink:href="#TimesNewRomanPSMT-42"/>
      <use xlink:href="#TimesNewRomanPSMT-61" transform="translate(66.699219 0)"/>
      <use xlink:href="#TimesNewRomanPSMT-73" transform="translate(111.083984 0)"/>
      <use xlink:href="#TimesNewRomanPSMT-65" transform="translate(150 0)"/>
      <use xlink:href="#TimesNewRomanPSMT-6c" transform="translate(194.384766 0)"/>
      <use xlink:href="#TimesNewRomanPSMT-69" transform="translate(222.167969 0)"/>
      <use xlink:href="#TimesNewRomanPSMT-6e" transform="translate(249.951172 0)"/>
      <use xlink:href="#TimesNewRomanPSMT-65" transform="translate(299.951172 0)"/>
      <use xlink:href="#TimesNewRomanPSMT-20" transform="translate(344.335938 0)"/>
      <use xlink:href="#TimesNewRomanPSMT-28" transform="translate(369.335938 0)"/>
      <use xlink:href="#TimesNewRomanPSMT-30" transform="translate(402.636719 0)"/>
      <use xlink:href="#TimesNewRomanPSMT-2e" transform="translate(452.636719 0)"/>
      <use xlink:href="#TimesNewRomanPSMT-39" transform="translate(477.636719 0)"/>
      <use xlink:href="#TimesNewRomanPSMT-32" transform="translate(527.636719 0)"/>
      <use xlink:href="#TimesNewRomanPSMT-34" transform="translate(577.636719 0)"/>
      <use xlink:href="#TimesNewRomanPSMT-34" transform="translate(627.636719 0)"/>
      <use xlink:href="#TimesNewRomanPSMT-29" transform="translate(677.636719 0)"/>
     </g>
    </g>
    <g id="LineCollection_2">
     <path d="M 352.578594 50.007656 
L 352.578594 41.007656 
" style="fill: none; stroke: #000000; stroke-width: 0.9"/>
    </g>
    <g id="line2d_22">
     <g>
      <use xlink:href="#m81f7c8ae09" x="352.578594" y="50.007656" style="stroke: #000000"/>
     </g>
    </g>
    <g id="line2d_23">
     <g>
      <use xlink:href="#m81f7c8ae09" x="352.578594" y="41.007656" style="stroke: #000000"/>
     </g>
    </g>
    <g id="line2d_24">
     <path d="M 343.578594 45.507656 
L 361.578594 45.507656 
" style="fill: none; stroke: #000000; stroke-width: 1.3; stroke-linecap: square"/>
    </g>
    <g id="line2d_25">
     <g>
      <use xlink:href="#m777b285e8d" x="352.578594" y="45.507656" style="fill: #1f77b4; stroke: #000000"/>
     </g>
    </g>
    <g id="text_13">
     <!-- DP runs (mean ± std) -->
     <g transform="translate(368.778594 48.657656) scale(0.09 -0.09)">
      <defs>
       <path id="TimesNewRomanPSMT-b1" d="M 25 441 
L 25 694 
L 1581 694 
L 1581 2000 
L 25 2000 
L 25 2256 
L 1581 2256 
L 1581 3809 
L 1831 3809 
L 1831 2256 
L 3394 2256 
L 3394 2000 
L 1831 2000 
L 1831 694 
L 3397 694 
L 3397 441 
L 25 441 
z
" transform="scale(0.015625)"/>
       <path id="TimesNewRomanPSMT-64" d="M 2222 322 
Q 2013 103 1813 7 
Q 1613 -88 1381 -88 
Q 913 -88 563 304 
Q 213 697 213 1313 
Q 213 1928 600 2439 
Q 988 2950 1597 2950 
Q 1975 2950 2222 2709 
L 2222 3238 
Q 2222 3728 2198 3840 
Q 2175 3953 2125 3993 
Q 2075 4034 2000 4034 
Q 1919 4034 1784 3984 
L 1744 4094 
L 2597 4444 
L 2738 4444 
L 2738 1134 
Q 2738 631 2761 520 
Q 2784 409 2836 365 
Q 2888 322 2956 322 
Q 3041 322 3181 375 
L 3216 266 
L 2366 -88 
L 2222 -88 
L 2222 322 
z
M 2222 541 
L 2222 2016 
Q 2203 2228 2109 2403 
Q 2016 2578 1861 2667 
Q 1706 2756 1559 2756 
Q 1284 2756 1069 2509 
Q 784 2184 784 1559 
Q 784 928 1059 592 
Q 1334 256 1672 256 
Q 1956 256 2222 541 
z
" transform="scale(0.015625)"/>
      </defs>
      <use xlink:href="#TimesNewRomanPSMT-44"/>
      <use xlink:href="#TimesNewRomanPSMT-50" transform="translate(72.216797 0)"/>
      <use xlink:href="#TimesNewRomanPSMT-20" transform="translate(124.082031 0)"/>
      <use xlink:href="#TimesNewRomanPSMT-72" transform="translate(149.082031 0)"/>
      <use xlink:href="#TimesNewRomanPSMT-75" transform="translate(182.382812 0)"/>
      <use xlink:href="#TimesNewRomanPSMT-6e" transform="translate(232.382812 0)"/>
      <use xlink:href="#TimesNewRomanPSMT-73" transform="translate(282.382812 0)"/>
      <use xlink:href="#TimesNewRomanPSMT-20" transform="translate(321.298828 0)"/>
      <use xlink:href="#TimesNewRomanPSMT-28" transform="translate(346.298828 0)"/>
      <use xlink:href="#TimesNewRomanPSMT-6d" transform="translate(379.599609 0)"/>
      <use xlink:href="#TimesNewRomanPSMT-65" transform="translate(457.382812 0)"/>
      <use xlink:href="#TimesNewRomanPSMT-61" transform="translate(501.767578 0)"/>
      <use xlink:href="#TimesNewRomanPSMT-6e" transform="translate(546.152344 0)"/>
      <use xlink:href="#TimesNewRomanPSMT-20" transform="translate(596.152344 0)"/>
      <use xlink:href="#TimesNewRomanPSMT-b1" transform="translate(621.152344 0)"/>
      <use xlink:href="#TimesNewRomanPSMT-20" transform="translate(676.035156 0)"/>
      <use xlink:href="#TimesNewRomanPSMT-73" transform="translate(701.035156 0)"/>
      <use xlink:href="#TimesNewRomanPSMT-74" transform="translate(739.951172 0)"/>
      <use xlink:href="#TimesNewRomanPSMT-64" transform="translate(767.734375 0)"/>
      <use xlink:href="#TimesNewRomanPSMT-29" transform="translate(817.734375 0)"/>
     </g>
    </g>
   </g>
  </g>
 </g>
 <defs>
  <clipPath id="pfc9e387246">
   <rect x="52.032813" y="21.5325" width="401.44" height="177.773875"/>
  </clipPath>
 </defs>
</svg>
